<?xml version="1.0" encoding="utf-8"?>
<!-- Generator: Adobe Illustrator 22.1.0, SVG Export Plug-In . SVG Version: 6.00 Build 0)  -->
<svg version="1.1" id="Layer_1" xmlns="http://www.w3.org/2000/svg" xmlns:xlink="http://www.w3.org/1999/xlink" x="0px" y="0px"
	 viewBox="0 0 64 64" style="enable-background:new 0 0 64 64;" xml:space="preserve">
<style type="text/css">
	.st0{fill:#FFFFFF;}
</style>
<g id="sWhwAa.tif">
	<path class="st0" d="M46.2,21.3c-1.6-7.9-9-13-17-11.5c-6.2,1.2-11,6.4-11.6,12.8c-0.3,3.1,0.4,6.1,2.3,9.5c1.8,3.4,4,7.3,5.8,11.5
		c1.8,4,3.3,7,4.7,9.9c0.3,0.6,0.9,1,1.5,1l0,0c0.7,0,1.3-0.4,1.5-1l0.4-0.7c0.4-0.9,0.6-1.2,0.7-1.5c0.1-0.3,0.3-0.6,0.7-1.5l3-6
		c2.2-4.4,4.3-8.7,6.5-13.1C46.3,27.7,46.8,24.4,46.2,21.3z M38.5,24.1c0,3.6-2.9,6.5-6.5,6.5l0,0c-3.6,0-6.5-2.9-6.5-6.5
		c0-1.7,0.7-3.4,1.9-4.6c1.2-1.2,2.9-1.9,4.6-1.9l0,0c1.7,0,3.3,0.7,4.6,1.9C37.8,20.7,38.5,22.3,38.5,24.1z"/>
</g>
</svg>
