<?xml version="1.0" encoding="utf-8"?>
<!-- Generator: Adobe Illustrator 22.1.0, SVG Export Plug-In . SVG Version: 6.00 Build 0)  -->
<svg version="1.1" id="Layer_1" xmlns="http://www.w3.org/2000/svg" xmlns:xlink="http://www.w3.org/1999/xlink" x="0px" y="0px"
	 viewBox="0 0 64 64" style="enable-background:new 0 0 64 64;" xml:space="preserve">
<style type="text/css">
	.st0{fill:#FFFFFF;}
</style>
<g>
	<path class="st0" d="M32,35.2L32,35.2c6.5,0,12.1-5.5,12.1-11.9c0-6.6-5.4-12-12-12c-3.2,0-6.3,1.3-8.6,3.6
		C21.2,17,19.9,20,20,23.2c0,3.1,1.2,6.1,3.4,8.4C25.7,33.8,28.8,35.2,32,35.2z"/>
	<path class="st0" d="M52.6,48.4C51.4,42,48.1,37,42.9,33.5c-1.2-0.8-1.5-0.8-2.6,0.2l-0.2,0.1c-2.9,2.4-6.1,3.4-9.7,2.9
		c-2.7-0.3-5.1-1.5-7-3.4c-0.6-0.6-1.2-0.7-1.9-0.2c-4.3,2.7-7.3,6.5-9,11.2c-0.5,1.4-0.8,2.8-1.1,4.2l-0.1,0.6
		c-0.1,0.6,0,1.2,0.2,1.6c0.3,0.4,0.8,0.7,1.4,0.9c0.3,0.1,0.6,0.1,1,0.1c5.2,0,10.3,0,15.5,0h5.7c1,0,2.1,0,3.1,0
		c3.9,0,7.9,0,11.8,0c0.4,0,0.8,0,1.2-0.1c0.9-0.2,1.5-1,1.5-2C52.7,49.3,52.7,48.8,52.6,48.4z"/>
</g>
</svg>
