<?xml version="1.0" encoding="utf-8"?>
<!-- Generator: Adobe Illustrator 22.1.0, SVG Export Plug-In . SVG Version: 6.00 Build 0)  -->
<svg version="1.1" id="Layer_1" xmlns="http://www.w3.org/2000/svg" xmlns:xlink="http://www.w3.org/1999/xlink" x="0px" y="0px"
	 viewBox="0 0 64 64" style="enable-background:new 0 0 64 64;" xml:space="preserve">
<style type="text/css">
	.st0{fill:#FFFFFF;}
</style>
<g>
	<path class="st0" d="M37.6,13.4C30.7,13.4,25,19.1,25,26c0,2.4,0.7,4.6,1.8,6.5l-12,12c-0.7,0.7-1,1.5-1,2.5s0.4,1.8,1,2.5
		c0.7,0.7,1.5,1,2.5,1c0.9,0,1.8-0.4,2.5-1L32,37.3c1.7,0.9,3.6,1.4,5.7,1.4c6.9,0,12.6-5.7,12.6-12.6
		C50.2,19.1,44.6,13.4,37.6,13.4z M37.6,31.7c-3.1,0-5.6-2.5-5.6-5.6s2.5-5.6,5.6-5.6s5.6,2.5,5.6,5.6
		C43.2,29.1,40.7,31.7,37.6,31.7z"/>
</g>
</svg>
